<?xml version="1.0" standalone="no"?>
<!DOCTYPE svg PUBLIC "-//W3C//DTD SVG 20010904//EN"
 "http://www.w3.org/TR/2001/REC-SVG-20010904/DTD/svg10.dtd">
<svg version="1.0" xmlns="http://www.w3.org/2000/svg"
 width="285.000000pt" height="285.000000pt" viewBox="0 0 285.000000 285.000000"
 preserveAspectRatio="xMidYMid meet">
<metadata>
Created by potrace 1.14, written by Peter Selinger 2001-2017
</metadata>
<g transform="translate(0.000000,285.000000) scale(0.100000,-0.100000)"
fill="#000000" stroke="none">
<path d="M0 2480 c0 -203 4 -370 8 -370 10 0 52 85 52 105 0 31 21 24 36 -11
16 -38 15 -111 -1 -148 -6 -14 -5 -17 3 -12 6 4 23 43 37 88 38 119 36 118 79
31 21 -43 47 -94 58 -113 40 -73 50 -105 49 -167 0 -35 3 -63 7 -63 5 0 24 11
43 25 l34 26 5 -73 c3 -40 9 -72 14 -71 5 1 27 34 48 75 53 98 78 130 134 167
57 37 92 39 127 7 65 -60 59 -239 -11 -340 -69 -99 -69 -100 -30 -179 l19 -38
58 53 c32 30 105 81 162 115 129 75 210 146 270 233 50 73 113 223 104 249 -2
9 -1 48 3 88 9 77 4 129 -23 260 l-16 83 54 53 c59 57 86 103 111 186 19 66
21 111 4 111 -7 0 -26 -19 -43 -41 -48 -66 -89 -89 -160 -89 -92 0 -95 8 -25
73 l61 57 -76 0 c-63 0 -80 -4 -98 -21 l-22 -20 -17 20 c-16 21 -24 21 -537
21 l-521 0 0 -370z"/>
<path d="M605 1858 l-40 -43 45 40 c25 22 47 41 49 43 2 1 0 2 -5 2 -6 0 -28
-19 -49 -42z"/>
<path d="M662 1790 c0 -14 2 -19 5 -12 2 6 2 18 0 25 -3 6 -5 1 -5 -13z"/>
<path d="M1018 1253 c-9 -2 -19 -10 -21 -17 -4 -11 0 -11 19 -2 13 6 24 14 24
19 0 4 -1 6 -2 6 -2 -1 -10 -3 -20 -6z"/>
<path d="M918 1233 c7 -3 16 -2 19 1 4 3 -2 6 -13 5 -11 0 -14 -3 -6 -6z"/>
<path d="M1315 1210 c10 -11 20 -20 23 -20 3 0 -3 9 -13 20 -10 11 -20 20 -23
20 -3 0 3 -9 13 -20z"/>
<path d="M955 1210 c-3 -6 1 -7 9 -4 18 7 21 14 7 14 -6 0 -13 -4 -16 -10z"/>
<path d="M884 1164 c-18 -14 -18 -15 4 -4 12 6 22 13 22 15 0 8 -5 6 -26 -11z"/>
<path d="M1340 1176 c0 -2 8 -10 18 -17 15 -13 16 -12 3 4 -13 16 -21 21 -21
13z"/>
<path d="M58 1163 c7 -3 16 -2 19 1 4 3 -2 6 -13 5 -11 0 -14 -3 -6 -6z"/>
<path d="M777 1085 c-37 -31 -67 -58 -67 -61 0 -2 28 18 63 47 73 61 83 69 76
69 -3 0 -35 -25 -72 -55z"/>
<path d="M1400 1096 c0 -2 8 -10 18 -17 15 -13 16 -12 3 4 -13 16 -21 21 -21
13z"/>
<path d="M360 1030 c6 -11 13 -20 16 -20 2 0 0 9 -6 20 -6 11 -13 20 -16 20
-2 0 0 -9 6 -20z"/>
<path d="M1440 1046 c0 -2 8 -10 18 -17 15 -13 16 -12 3 4 -13 16 -21 21 -21
13z"/>
<path d="M1130 940 c-8 -5 -10 -10 -5 -10 6 0 17 5 25 10 8 5 11 10 5 10 -5 0
-17 -5 -25 -10z"/>
<path d="M1370 927 c0 -3 19 -17 43 -32 23 -15 63 -46 90 -67 26 -22 47 -37
47 -34 0 7 -130 111 -157 125 -13 6 -23 10 -23 8z"/>
<path d="M284 878 c-43 -32 -49 -38 -39 -38 11 1 83 60 73 60 -3 0 -18 -10
-34 -22z"/>
<path d="M556 813 c-6 -14 -5 -15 5 -6 7 7 10 15 7 18 -3 3 -9 -2 -12 -12z"/>
<path d="M532 770 c-18 -29 -15 -38 4 -12 9 13 14 25 12 27 -2 2 -9 -5 -16
-15z"/>
<path d="M1560 776 c0 -2 8 -10 18 -17 15 -13 16 -12 3 4 -13 16 -21 21 -21
13z"/>
<path d="M1600 736 c0 -2 8 -10 18 -17 15 -13 16 -12 3 4 -13 16 -21 21 -21
13z"/>
<path d="M386 684 c-9 -26 -16 -52 -15 -58 0 -6 9 13 20 43 10 30 17 56 15 58
-2 2 -11 -17 -20 -43z"/>
<path d="M505 719 c-4 -6 -5 -12 -2 -15 2 -3 7 2 10 11 7 17 1 20 -8 4z"/>
<path d="M676 522 c-105 -104 -216 -212 -246 -242 -55 -54 -40 -45 34 20 77
67 421 410 412 410 -6 0 -96 -85 -200 -188z"/>
<path d="M202 670 c0 -14 2 -19 5 -12 2 6 2 18 0 25 -3 6 -5 1 -5 -13z"/>
<path d="M470 679 c-16 -4 -19 -7 -7 -8 20 -1 21 -8 2 -41 -8 -14 -14 -29 -14
-35 0 -5 11 12 25 38 14 27 24 50 22 51 -2 2 -14 -1 -28 -5z"/>
<path d="M1660 674 c0 -6 17 -26 38 -45 l37 -34 -35 40 c-19 22 -36 42 -37 44
-2 2 -3 0 -3 -5z"/>
<path d="M355 580 c-4 -17 -5 -34 -2 -36 3 -3 8 9 12 26 4 17 5 34 2 36 -3 3
-8 -9 -12 -26z"/>
<path d="M432 555 c-17 -37 -14 -45 4 -12 9 16 14 31 11 33 -2 2 -9 -7 -15
-21z"/>
<path d="M122 550 c0 -14 2 -19 5 -12 2 6 2 18 0 25 -3 6 -5 1 -5 -13z"/>
<path d="M189 515 c-6 -55 6 -193 21 -240 9 -26 9 -25 3 10 -3 22 -9 94 -12
160 -5 92 -8 108 -12 70z"/>
<path d="M341 504 c0 -11 3 -14 6 -6 3 7 2 16 -1 19 -3 4 -6 -2 -5 -13z"/>
<path d="M382 423 c-18 -47 -30 -88 -28 -91 3 -3 8 4 12 14 3 10 18 49 32 87
14 37 23 69 21 72 -3 2 -19 -34 -37 -82z"/>
<path d="M771 411 c-52 -166 -99 -266 -144 -313 -40 -41 -41 -42 -7 -17 19 14
49 49 66 76 37 61 137 353 121 353 -3 0 -19 -45 -36 -99z"/>
<path d="M112 450 c0 -14 2 -19 5 -12 2 6 2 18 0 25 -3 6 -5 1 -5 -13z"/>
<path d="M1023 435 c0 -22 2 -30 4 -17 2 12 2 30 0 40 -3 9 -5 -1 -4 -23z"/>
<path d="M326 428 c-3 -13 -5 -39 -5 -58 1 -28 3 -25 10 19 9 55 6 80 -5 39z"/>
<path d="M145 363 c-10 -32 -20 -65 -23 -73 -3 -8 -9 3 -12 25 -5 28 -7 10 -8
-60 -1 -81 1 -95 10 -75 6 14 13 41 15 60 2 19 13 66 24 103 12 38 19 70 17
73 -3 2 -13 -22 -23 -53z"/>
<path d="M1013 315 c0 -44 2 -61 4 -37 2 23 2 59 0 80 -2 20 -4 1 -4 -43z"/>
<path d="M312 310 c0 -14 2 -19 5 -12 2 6 2 18 0 25 -3 6 -5 1 -5 -13z"/>
<path d="M221 224 c0 -11 3 -14 6 -6 3 7 2 16 -1 19 -3 4 -6 -2 -5 -13z"/>
<path d="M92 130 c0 -14 2 -19 5 -12 2 6 2 18 0 25 -3 6 -5 1 -5 -13z"/>
<path d="M2020 146 c0 -2 7 -7 16 -10 8 -3 12 -2 9 4 -6 10 -25 14 -25 6z"/>
<path d="M2070 126 c0 -2 8 -10 18 -17 15 -13 16 -12 3 4 -13 16 -21 21 -21
13z"/>
<path d="M163 98 c-27 -30 -56 -88 -48 -96 3 -3 8 4 12 16 3 12 9 22 13 22 4
0 12 11 18 25 7 15 27 32 45 40 31 14 31 14 6 15 -14 0 -35 -10 -46 -22z"/>
</g>
</svg>
